<?xml version="1.0" encoding="UTF-8"?> <!-- Generator: Adobe Illustrator 24.0.0, SVG Export Plug-In . SVG Version: 6.00 Build 0) --> <svg xmlns="http://www.w3.org/2000/svg" xmlns:xlink="http://www.w3.org/1999/xlink" version="1.1" id="Layer_1" x="0px" y="0px" viewBox="0 0 300.7 107" style="enable-background:new 0 0 300.7 107;" xml:space="preserve"> <style type="text/css"> .st0{fill-rule:evenodd;clip-rule:evenodd;fill:#FFFFFF;} .st1{fill-rule:evenodd;clip-rule:evenodd;fill:#F8BFCF;} .st2{fill-rule:evenodd;clip-rule:evenodd;fill:#A7DFF8;} .st3{fill-rule:evenodd;clip-rule:evenodd;fill:#231F20;} </style> <g> <path class="st0" d="M132.2,85.5V35.4h8.6l0.1,4.1c2.1-3.4,5.2-5,9.5-5c2.1,0,4.1,0.4,5.9,1.2c1.8,0.8,3.4,2,4.7,3.6 c1.3,1.6,2.3,3.5,3,5.7c0.7,2.3,1.1,4.8,1.1,7.7c0,2.6-0.3,4.9-0.9,7.1c-0.6,2.1-1.5,4-2.7,5.6c-1.2,1.6-2.7,2.8-4.4,3.6 c-1.7,0.9-3.7,1.3-5.9,1.3c-4.2,0-7.5-1.8-10.1-5.3v20.5H132.2z M148.2,62.6c5.2,0,7.7-3.5,7.7-10.5c0-3-0.7-5.5-2.1-7.4 c-1.4-1.9-3.3-2.9-5.5-2.9c-2.2,0-4,0.9-5.4,2.7c-1.4,1.8-2.2,4.1-2.2,7C140.7,58.9,143.2,62.6,148.2,62.6z"></path> <path class="st0" d="M189.2,69.4c-0.3-0.9-0.5-1.9-0.6-3c-1.1,1.2-2.5,2.2-4.2,2.9c-1.8,0.7-3.8,1.1-6.1,1.1 c-3.9,0-6.8-0.9-8.6-2.6c-1.8-1.7-2.7-4-2.7-6.7c0-2.4,0.4-4.4,1.2-5.8c0.8-1.5,1.9-2.6,3.2-3.4c1.4-0.8,3-1.4,4.9-1.8 c1.9-0.4,4-0.7,6.2-1.1c2.3-0.3,3.8-0.7,4.6-1.3c0.8-0.5,1.2-1.4,1.2-2.6c0-1.1-0.5-2-1.6-2.6c-1-0.6-2.4-0.9-4.2-0.9 c-2.1,0-3.6,0.5-4.5,1.4c-0.9,0.9-1.5,2.1-1.7,3.7l-8.4,0c0-1.7,0.3-3.4,0.9-4.8c0.5-1.5,1.4-2.7,2.6-3.8c1.2-1.1,2.7-1.9,4.6-2.5 c1.9-0.6,4.2-0.9,6.9-0.9c2.7,0,4.9,0.3,6.8,0.9c1.9,0.6,3.4,1.5,4.5,2.6c1.1,1.1,1.9,2.5,2.5,4.2c0.5,1.7,0.8,3.6,0.8,5.7v21.5 H189.2z M188.6,52.7c-0.5,0.5-1.1,0.8-2,1.1c-0.9,0.3-2.1,0.6-3.8,0.9c-2.6,0.5-4.3,1.2-5.3,1.9c-1,0.8-1.4,1.9-1.4,3.4 c0,2.5,1.4,3.8,4.4,3.8c1.2,0,2.2-0.2,3.2-0.6c1-0.4,1.8-0.9,2.6-1.6c0.7-0.7,1.3-1.4,1.7-2.3c0.4-0.9,0.7-1.9,0.7-2.9L188.6,52.7z "></path> <path class="st0" d="M222.9,69.4V48.8c0-2.6-0.4-4.4-1.3-5.3c-0.9-0.9-2.4-1.4-4.5-1.4c-4.7,0-7,2.6-7,7.8v19.5h-9v-34h8.6v5 c1.1-1.9,2.5-3.4,4.2-4.4c1.7-1,4-1.5,6.8-1.5c1.6,0,3.1,0.2,4.5,0.7c1.4,0.5,2.6,1.2,3.6,2.2c1,1,1.8,2.2,2.3,3.6 c0.6,1.4,0.9,3,0.9,4.9v23.5H222.9z"></path> <path class="st0" d="M259.1,69.4l-0.1-4.1c-2.1,3.4-5.2,5-9.5,5c-2.2,0-4.1-0.4-5.9-1.2c-1.8-0.8-3.3-2-4.6-3.6 c-1.3-1.6-2.3-3.5-3-5.7c-0.7-2.3-1.1-4.8-1.1-7.7c0-2.6,0.3-4.9,0.9-7.1c0.6-2.1,1.5-4,2.7-5.6c1.2-1.6,2.7-2.8,4.4-3.6 c1.7-0.9,3.7-1.3,5.9-1.3c4.2,0,7.5,1.8,10.1,5.3l0-16.8h8.8v46.4H259.1z M251.6,63c2.2,0,4-0.9,5.4-2.7c1.4-1.8,2.2-4.1,2.2-7 c0-7.4-2.5-11-7.5-11c-5.2,0-7.7,3.5-7.7,10.5c0,3,0.7,5.5,2.1,7.4C247.5,62,249.4,63,251.6,63z"></path> <path class="st0" d="M292.6,69.4c-0.3-0.9-0.5-1.9-0.6-3c-1.1,1.2-2.5,2.2-4.2,2.9c-1.8,0.7-3.8,1.1-6.1,1.1 c-3.9,0-6.8-0.9-8.6-2.6c-1.8-1.7-2.7-4-2.7-6.7c0-2.4,0.4-4.4,1.2-5.8c0.8-1.5,1.9-2.6,3.2-3.4c1.4-0.8,3-1.4,4.9-1.8 c1.9-0.4,4-0.7,6.2-1.1c2.3-0.3,3.8-0.7,4.6-1.3c0.8-0.5,1.2-1.4,1.2-2.6c0-1.1-0.5-2-1.6-2.6c-1-0.6-2.4-0.9-4.2-0.9 c-2.1,0-3.6,0.5-4.5,1.4c-0.9,0.9-1.5,2.1-1.7,3.7l-8.4,0c0-1.7,0.3-3.4,0.9-4.8c0.5-1.5,1.4-2.7,2.6-3.8c1.2-1.1,2.7-1.9,4.6-2.5 c1.9-0.6,4.2-0.9,6.9-0.9c2.7,0,4.9,0.3,6.8,0.9c1.9,0.6,3.4,1.5,4.5,2.6c1.1,1.1,1.9,2.5,2.5,4.2c0.5,1.7,0.8,3.6,0.8,5.7v21.5 H292.6z M292,52.7c-0.5,0.5-1.1,0.8-2,1.1c-0.9,0.3-2.1,0.6-3.8,0.9c-2.6,0.5-4.4,1.2-5.3,1.9c-1,0.8-1.4,1.9-1.4,3.4 c0,2.5,1.4,3.8,4.3,3.8c1.2,0,2.2-0.2,3.2-0.6c1-0.4,1.8-0.9,2.6-1.6c0.7-0.7,1.3-1.4,1.7-2.3c0.4-0.9,0.7-1.9,0.7-2.9L292,52.7z"></path> <polygon class="st0" points="163.1,99.6 157.4,90.9 155.2,93 155.2,99.6 151.2,99.6 151.2,80.3 155.2,80.3 155.2,88.2 162.6,80.3 167.8,80.3 160.2,87.9 168,99.6 "></polygon> <path class="st0" d="M169.1,83.6v-3.5h3.8v3.5H169.1z M169.1,99.6V85.3h3.8v14.3H169.1z"></path> <path class="st0" d="M184.5,99.6V91c0-1.1-0.2-1.8-0.6-2.2c-0.4-0.4-1-0.6-1.9-0.6c-2,0-2.9,1.1-2.9,3.3v8.2h-3.8V85.3h3.6v2.1 c0.4-0.8,1-1.4,1.8-1.8c0.7-0.4,1.7-0.6,2.8-0.6c0.7,0,1.3,0.1,1.9,0.3c0.6,0.2,1.1,0.5,1.5,0.9c0.4,0.4,0.7,0.9,1,1.5 c0.2,0.6,0.4,1.3,0.4,2v9.9H184.5z"></path> <path class="st0" d="M200,99.6l0-1.7c-0.9,1.4-2.2,2.1-4,2.1c-0.9,0-1.7-0.2-2.5-0.5c-0.8-0.3-1.4-0.9-1.9-1.5 c-0.5-0.7-1-1.5-1.3-2.4c-0.3-0.9-0.5-2-0.5-3.2c0-1.1,0.1-2.1,0.4-3c0.3-0.9,0.6-1.7,1.1-2.3c0.5-0.7,1.1-1.2,1.8-1.5 c0.7-0.4,1.6-0.5,2.5-0.5c1.8,0,3.2,0.7,4.2,2.2v-7.1h3.7v19.5H200z M196.8,96.9c0.9,0,1.7-0.4,2.3-1.1c0.6-0.8,0.9-1.7,0.9-3 c0-3.1-1.1-4.6-3.2-4.6c-2.2,0-3.2,1.5-3.2,4.4c0,1.3,0.3,2.3,0.9,3.1C195.1,96.5,195.9,96.9,196.8,96.9z"></path> <path class="st0" d="M208.3,93.5c0.1,1.1,0.4,1.9,0.9,2.6c0.6,0.6,1.3,1,2.2,1c0.6,0,1.2-0.1,1.6-0.4c0.5-0.3,0.8-0.7,0.9-1.2h3.9 c-0.4,1.5-1.2,2.6-2.3,3.4c-1.1,0.8-2.4,1.2-3.9,1.2c-4.8,0-7.1-2.6-7.1-7.8c0-1.1,0.2-2.1,0.5-3c0.3-0.9,0.8-1.7,1.3-2.3 c0.6-0.6,1.3-1.1,2.2-1.5c0.9-0.3,1.8-0.5,2.9-0.5c2.2,0,3.9,0.7,5,2.1c1.1,1.4,1.7,3.5,1.7,6.4H208.3z M214.2,91.1 c0-0.5-0.1-1-0.3-1.4c-0.2-0.4-0.4-0.7-0.7-1c-0.3-0.3-0.6-0.5-0.9-0.6c-0.3-0.1-0.7-0.2-1.1-0.2c-0.8,0-1.4,0.3-2,0.8 c-0.6,0.6-0.9,1.3-0.9,2.3H214.2z"></path> <path class="st0" d="M219.6,99.6V85.3h3.5V87c0.3-0.5,0.6-0.9,1-1.1c0.3-0.3,0.7-0.5,1-0.6c0.4-0.1,0.7-0.2,1.1-0.3 c0.4,0,0.7-0.1,1.1-0.1h0.5v3.9c-0.3-0.1-0.7-0.1-1-0.1c-2.3,0-3.5,1.2-3.5,3.5v7.4H219.6z"></path> <path class="st0" d="M245.7,99.6V91c0-0.9-0.2-1.6-0.6-2.1c-0.4-0.5-0.9-0.8-1.6-0.8c-0.7,0-1.3,0.3-1.7,0.9 c-0.5,0.6-0.7,1.3-0.7,2.2v8.5h-3.8V91c0-0.6,0-1.1-0.1-1.4c-0.1-0.4-0.2-0.7-0.4-0.9c-0.2-0.2-0.4-0.4-0.7-0.4 c-0.3-0.1-0.6-0.1-1-0.1c-1.5,0-2.3,0.9-2.3,2.8l0,8.7H229V85.3h3.5v2.1c0.5-0.9,1.1-1.6,1.7-1.9c0.7-0.3,1.5-0.5,2.4-0.5 c0.5,0,0.9,0,1.3,0.1c0.4,0.1,0.7,0.2,1,0.4c0.3,0.2,0.6,0.4,0.9,0.7c0.3,0.3,0.5,0.6,0.8,1c0.4-0.8,0.9-1.4,1.5-1.7 c0.6-0.4,1.4-0.5,2.3-0.5c0.7,0,1.4,0.1,2,0.4c0.6,0.2,1.1,0.6,1.5,1c0.4,0.4,0.8,0.9,1,1.5c0.2,0.6,0.4,1.2,0.4,1.9v9.9H245.7z"></path> <path class="st0" d="M258.2,100c-1.2,0-2.2-0.2-3.1-0.6c-0.9-0.4-1.7-0.9-2.3-1.5c-0.6-0.7-1.1-1.5-1.4-2.4c-0.3-0.9-0.5-1.9-0.5-3 c0-1.1,0.2-2.1,0.5-3.1c0.3-0.9,0.8-1.7,1.5-2.4c0.6-0.7,1.4-1.2,2.3-1.5c0.9-0.4,1.9-0.5,3.1-0.5c1.1,0,2.1,0.2,3,0.5 c0.9,0.4,1.6,0.9,2.3,1.5c0.6,0.6,1.1,1.4,1.5,2.4c0.3,0.9,0.5,2,0.5,3.1c0,1.1-0.2,2.2-0.5,3.1c-0.3,0.9-0.8,1.7-1.5,2.4 c-0.6,0.7-1.4,1.2-2.3,1.5C260.3,99.8,259.3,100,258.2,100 M253.4,82.8v-3.6h3.8v3.6H253.4z M258.2,96.8c2.3,0,3.5-1.4,3.5-4.4 c0-2.9-1.2-4.3-3.5-4.3c-2.3,0-3.5,1.4-3.5,4.3C254.8,95.4,255.9,96.8,258.2,96.8z M259.2,82.8v-3.6h3.8v3.6H259.2z"></path> <path class="st0" d="M267,99.6V80.1h3.7v7.1c1.1-1.5,2.5-2.2,4.2-2.2c0.9,0,1.8,0.2,2.5,0.5c0.7,0.4,1.3,0.9,1.8,1.5 c0.5,0.7,0.9,1.4,1.1,2.3c0.3,0.9,0.4,1.9,0.4,3c0,1.2-0.2,2.3-0.5,3.2c-0.3,0.9-0.7,1.8-1.3,2.4c-0.5,0.7-1.2,1.2-2,1.5 c-0.8,0.3-1.6,0.5-2.5,0.5c-1.8,0-3.1-0.7-4-2.1l0,1.7H267z M273.7,96.9c0.9,0,1.7-0.4,2.3-1.2c0.6-0.8,0.9-1.8,0.9-3.1 c0-2.9-1.1-4.4-3.2-4.4c-2.1,0-3.2,1.5-3.2,4.6c0,1.2,0.3,2.2,0.9,3C272.1,96.5,272.8,96.9,273.7,96.9z"></path> <path class="st0" d="M285.8,93.5c0.1,1.1,0.4,1.9,0.9,2.6c0.6,0.6,1.3,1,2.2,1c0.6,0,1.2-0.1,1.6-0.4c0.5-0.3,0.8-0.7,0.9-1.2h3.9 c-0.4,1.5-1.2,2.6-2.3,3.4c-1.1,0.8-2.4,1.2-3.9,1.2c-4.8,0-7.1-2.6-7.1-7.8c0-1.1,0.2-2.1,0.5-3c0.3-0.9,0.8-1.7,1.3-2.3 c0.6-0.6,1.3-1.1,2.2-1.5c0.9-0.3,1.8-0.5,2.9-0.5c2.2,0,3.9,0.7,5,2.1c1.1,1.4,1.7,3.5,1.7,6.4H285.8z M291.7,91.1 c0-0.5-0.1-1-0.3-1.4c-0.2-0.4-0.4-0.7-0.7-1c-0.3-0.3-0.6-0.5-0.9-0.6c-0.3-0.1-0.7-0.2-1.1-0.2c-0.8,0-1.4,0.3-2,0.8 c-0.6,0.6-0.9,1.3-0.9,2.3H291.7z"></path> <rect x="297.1" y="80.1" class="st0" width="3.8" height="19.5"></rect> <path class="st1" d="M104.4,77.1c1.3,5.1-1.8,10.4-6.9,11.7l-68,17.8c-5.1,1.3-10.4-1.8-11.7-6.9L0,30.5c-0.2-0.8-0.3-1.6-0.3-2.4 c0-4.3,2.9-8.2,7.2-9.3L74.9,1c5.1-1.3,10.4,1.8,11.7,6.9L104.4,77.1z"></path> <path class="st2" d="M117.3,95.1c-0.5,4-4.1,6.9-8.1,6.4L56,95.4c-4-0.5-6.9-4.1-6.4-8.1l6.9-58.6c0.5-4,4.1-6.9,8.1-6.4l53.1,6.1 c4,0.5,6.9,4.1,6.4,8.1L117.3,95.1z"></path> <path class="st3" d="M77.4,30.1c-6.4,0-8.7,3.3-9.5,5C61.4,29.7,54.6,29,51.8,29c-6.2,0-12.1,2.3-17.3,6.6c-1.4-2.3-5-6.5-11.9-5.1 c-9.6,1.9-11.1,9.8-8.2,16.4c2.2,5.1,6.5,6.1,8.2,6.3c-1.3,3.6-2.1,7.4-2.5,11.3c-0.4,4.8,1,9.1,4.3,12.7 c8,8.7,24.3,10.6,27.1,10.6c0.2,0,19-0.1,27.2-10.7c3.7-4.7,4.6-10.7,2.8-17.9c-0.6-2.6-1.4-4.9-2.2-7.1c1.8-0.9,6.7-3.7,7.8-7.6 C88.8,38.5,85.8,30.1,77.4,30.1 M77.3,76c-7.7,9.9-25.6,10-25.8,10c-2.7,0-18.3-1.7-25.8-10c-2.9-3.2-4.2-7-3.8-11.3 c0.8-8.8,4.3-17.4,9.8-23.7c5.6-6.5,12.8-10.1,20.2-10.1c19.3,0,26.4,22.1,28.1,28.8C81.5,66.2,80.6,71.7,77.3,76z"></path> <path class="st3" d="M43.4,46.9c-2.7-1.4-9.6-1.4-13.1,3.3c-3.5,4.7-2.8,12.1,0.2,15.6c3,3.5,7.7,2.6,9.6,1.2 c1.9-1.4,6.3-9.6,7-12.6C47.8,51.4,46.2,48.3,43.4,46.9"></path> <path class="st3" d="M61.8,46.9c-4.7,1.6-3.7,11-2.3,14.9c1.4,4,6.1,8.9,12.4,6.3c4.7-1.9,4.7-10.5,1.4-15.2 C69.9,48.3,66.1,45.4,61.8,46.9"></path> <path class="st3" d="M59.4,69.5c-0.5,0-1,0.4-1.1,0.9c0,0-0.2,2.2-1.6,3.1c-1,0.6-2.4,0.5-4.2-0.3v-3.5c1.3-0.2,4.4-0.9,4.4-3.2 c0-2.9-1.8-4.3-5.2-4.3c-0.9,0-4.9,0-5.1,3.9c-0.1,2.5,2.9,3.3,4.4,3.5v3.6c-1.8,0.8-3.2,0.9-4.2,0.3c-1.5-0.9-1.6-3-1.6-3.1 c0-0.5-0.5-1-1.1-0.9c-0.5,0-1,0.5-0.9,1.1c0,0.1,0.2,3.2,2.6,4.6c0.7,0.4,1.6,0.7,2.5,0.7c1,0,2.2-0.3,3.4-0.8 c1.3,0.5,2.4,0.8,3.4,0.8c1,0,1.8-0.2,2.5-0.7c2.3-1.4,2.6-4.5,2.6-4.6C60.3,70,59.9,69.5,59.4,69.5"></path> <path class="st0" d="M70.9,55.3c-0.5-2.1-2.3-5.3-5.8-4.2c-3.7,1.1-3,4.1-2.6,5.3c0.6-0.6,1.3-0.9,2.2-0.9c0.3,0,0.6,0.1,0.9,0.1 c0.2,0,0.4,0.1,0.6,0.2c1,0.5,1.7,1.6,1.7,2.8c0,1.2-0.7,2.3-1.7,2.8C66,61.5,66,61.6,66,61.6C70.4,61.4,71.3,57.4,70.9,55.3"></path> <path class="st0" d="M34.8,58.5c0.2-1.2,1-2.1,2.1-2.4c0.2-0.1,0.4-0.1,0.6-0.1c0.3,0,0.6,0,0.9,0c0.8,0.1,1.5,0.6,2,1.2 c0.6-1.1,1.8-4-1.7-5.6c-3.3-1.6-5.6,1.2-6.4,3.2c-0.8,2-0.5,6.1,3.8,7c0,0,0-0.1-0.1-0.2C35.1,60.9,34.6,59.7,34.8,58.5"></path> </g> </svg> 